<svg width="1600" height="949" viewBox="0 0 1600 949" fill="none" xmlns="http://www.w3.org/2000/svg">
<path fill-rule="evenodd" clip-rule="evenodd" d="M0 68.7342C0 68.7342 168.079 21.1754 360.594 36.9129C450.026 44.2236 536.346 61.8618 653.316 98.6058C677.951 106.344 711.287 116.549 755.843 127.726C769.742 131.212 801.707 137.941 801.707 137.941C801.707 137.941 857.747 146.628 906.364 145.393C954.98 144.158 1028.4 132.072 1028.4 132.072C1028.4 132.072 1116.38 109.897 1163.35 98.6058C1210.33 87.3142 1272.62 82.0855 1272.62 82.0855C1272.62 82.0855 1359.8 75.0375 1439.4 83.4719C1518.99 91.9063 1600 115.619 1600 115.619V908.661C1600 908.661 1554.58 906.809 1500.55 915.813C1446.51 924.818 1384.6 949 1384.6 949L230 918.312C230 918.312 180.633 912.224 130.589 910.987C102.435 910.291 66.915 910.907 24.2807 913.676C16.3929 914.189 0 915.813 0 915.813V68.7342Z" fill="#B46BF9"/>
<path opacity="0.493025" fill-rule="evenodd" clip-rule="evenodd" d="M0 35.7342C0 35.7342 168.079 -11.8246 360.594 3.91287C450.026 11.2236 536.346 28.8618 653.316 65.6058C677.951 73.3444 711.287 83.5486 755.843 94.7256C769.742 98.2124 801.707 104.941 801.707 104.941C801.707 104.941 857.747 113.628 906.364 112.393C954.98 111.158 1028.4 99.0723 1028.4 99.0723C1028.4 99.0723 1116.38 76.8974 1163.35 65.6058C1210.33 54.3142 1272.62 49.0855 1272.62 49.0855C1272.62 49.0855 1359.8 42.0375 1439.4 50.4719C1518.99 58.9063 1600 82.6191 1600 82.6191V876.75C1600 876.75 1541.53 874.232 1494.44 882.813C1447.35 891.394 1384.6 916 1384.6 916L157.918 885.312C157.918 885.312 110.155 876.107 82.6166 875.659C55.0777 875.211 0 882.087 0 882.087V35.7342Z" fill="#9B51E0"/>
<path fill-rule="evenodd" clip-rule="evenodd" d="M0 35.7291C0 35.7291 168.079 -11.8229 360.594 3.91227C450.026 11.222 536.346 28.8576 653.316 65.5963C677.951 73.3338 711.287 83.5365 755.843 94.712C769.742 98.1982 801.707 104.926 801.707 104.926C801.707 104.926 857.747 113.611 906.364 112.377C954.98 111.142 1028.4 99.0581 1028.4 99.0581C1028.4 99.0581 1116.38 76.8863 1163.35 65.5963C1210.33 54.3063 1272.62 49.0784 1272.62 49.0784C1272.62 49.0784 1359.8 42.0314 1439.4 50.4646C1518.99 58.8979 1600 82.6072 1600 82.6072V891C1600 891 1493.06 875.533 1435.03 881.011C1377 886.488 157.918 885.184 157.918 885.184C157.918 885.184 110.155 875.982 82.6166 875.533C55.0777 875.085 0 881.96 0 881.96V35.7291Z" fill="#9B51E0"/>
</svg>
