<svg width="1600" height="560" viewBox="0 0 1600 560" fill="none" xmlns="http://www.w3.org/2000/svg">
<path fill-rule="evenodd" clip-rule="evenodd" d="M0 45.8387C0 45.8387 44.965 39.4699 98.9498 25.0617C152.935 10.6534 252.854 2.52097 280.586 0.693965C328.986 -2.49453 560.351 47.3692 570.071 48.9013C647.031 61.0328 745.828 55.7824 861.679 31.9439C877.237 28.7425 935.843 17.5274 953.003 16.1058C961.381 15.4117 1043.48 5.78765 1122.47 3.40919C1201.95 1.01581 1409.89 34.2956 1409.89 34.2956C1409.89 34.2956 1428.72 38.2639 1442.17 39.8495C1473.73 43.5702 1480.05 44.8766 1507.03 45.8387C1539.85 47.0094 1600 44.923 1600 44.923V560H0V45.8387Z" fill="#B46BF9"/>
<path fill-rule="evenodd" clip-rule="evenodd" d="M0 88.1767L31.225 83.8495C31.225 83.8495 51.4477 84.9999 60.4519 84.9999C65.3874 84.9999 106.962 85.5636 144.443 79.99C175.343 75.3952 203.205 65.7046 205.152 65.0848C225.959 58.4617 244.343 55.9692 255.108 55.9692C265.872 55.9692 273.261 56.9305 282.449 59.585C325.378 71.988 352.152 96.3867 463.558 75.3582C475.925 73.0239 560.351 47.3694 570.071 48.9016C647.031 61.033 745.828 55.7826 861.679 31.9441C877.237 28.7428 935.843 17.5276 953.003 16.106C961.381 15.4119 981.135 17.5276 981.135 17.5276C981.135 17.5276 1030.64 21.1479 1111.87 43.0153C1184.54 62.5791 1242.06 65.9375 1263.38 65.9375C1309.85 65.9375 1409.89 34.2959 1409.89 34.2959C1409.89 34.2959 1428.72 38.2641 1442.17 39.8497C1473.73 43.5704 1480.05 44.8768 1507.03 45.8389C1539.85 47.0096 1600 44.9232 1600 44.9232V560H0" fill="#AE5FF8"/>
<path fill-rule="evenodd" clip-rule="evenodd" d="M0 88.1765L31.225 83.8493C31.225 83.8493 51.4477 84.9996 60.4519 84.9996C65.3874 84.9996 106.962 85.5633 144.443 79.9898C175.343 75.395 202.986 64.5554 205.152 65.0845C299.677 88.1765 374.896 106.612 519.268 101.738C533.343 101.263 605.368 94.5004 626.838 90.1812C676.748 80.1405 759.174 61.4776 875.025 37.6391C907.367 30.9842 981.135 17.5274 981.135 17.5274C981.135 17.5274 1059.34 -0.291201 1162.67 4.2676C1311.32 10.8257 1392.43 39.3394 1392.43 39.3394C1392.43 39.3394 1413.24 46.6796 1422.58 50.3261C1458.57 64.3895 1486.32 74.8456 1507.03 79.9898C1546.14 89.7069 1600 91.1206 1600 91.1206V560H0" fill="#B46BF9"/>
<path fill-rule="evenodd" clip-rule="evenodd" d="M0 88.1764L31.225 83.8492C31.225 83.8492 51.4477 84.9996 60.4519 84.9996C65.3874 84.9996 106.962 85.5633 144.443 79.9897C175.343 75.3949 202.986 64.5553 205.152 65.0845C299.677 88.1764 374.896 106.611 519.268 101.738C533.343 101.263 605.368 94.5004 626.838 90.1812C676.748 80.1405 759.174 61.4776 875.025 37.639C907.367 30.9841 981.135 17.5273 981.135 17.5273C981.135 17.5273 1030.64 21.1476 1111.87 43.015C1184.54 62.5788 1242.06 65.9372 1263.38 65.9372C1309.85 65.9372 1392.43 39.3394 1392.43 39.3394C1392.43 39.3394 1413.24 46.6795 1422.58 50.326C1458.57 64.3894 1486.32 74.8455 1507.03 79.9897C1546.14 89.7069 1600 91.1205 1600 91.1205V560H0" fill="#9B51E0"/>
</svg>
