<svg width="1600" height="483" viewBox="0 0 1600 483" fill="none" xmlns="http://www.w3.org/2000/svg">
<path fill-rule="evenodd" clip-rule="evenodd" d="M0 12.9999C0 12.9999 105.994 27.3268 209.554 28.7368C243.003 28.7368 283.755 28.7368 332.915 27.3268C382.075 25.9167 497.076 12.9999 497.076 12.9999C497.076 12.9999 635.745 0.577148 722 0.577148C808.255 0.577148 927.299 18.6329 927.299 18.6329C927.299 18.6329 1054.32 36.4593 1189.89 44.0484C1241.02 46.9104 1311.71 50.4256 1394.25 47.7594C1458.65 45.6793 1600 33.119 1600 33.119V467.125C1600 467.125 1437.77 485.504 1298.87 482.165C1159.98 478.827 1105.54 473.943 1033.22 465.035C876.759 445.764 772.553 434.194 728.101 434.194C602.155 434.194 525.224 444.791 525.224 444.791C525.224 444.791 328.237 463.258 227.147 463.258C126.057 463.258 0 447.023 0 447.023V12.9999Z" fill="#9B51E0"/>
</svg>
