<svg width="15" height="15" viewBox="0 0 15 15" fill="none" xmlns="http://www.w3.org/2000/svg">
<path fill-rule="evenodd" clip-rule="evenodd" d="M0 7.49223C0 3.36117 3.36117 0 7.49223 0C11.6233 0 14.9845 3.36117 14.9845 7.49223C14.9845 11.6233 11.6233 14.9845 7.49223 14.9845C3.36117 14.9845 0 11.6233 0 7.49223ZM6.89135 10.2713L11.6796 5.52059C11.98 5.22015 11.98 4.75071 11.6796 4.45027C11.3792 4.14983 10.9097 4.14983 10.6093 4.45027L6.32802 8.73154L4.31883 6.89135C4.01839 6.60968 3.54895 6.62846 3.26729 6.9289C3.0044 7.22934 3.02318 7.69878 3.32362 7.98044L5.85858 10.2901C6.15902 10.5717 6.60968 10.553 6.89135 10.2713Z" fill="#FFBE56"/>
</svg>
