<svg width="36" height="36" viewBox="0 0 36 36" fill="none" xmlns="http://www.w3.org/2000/svg">
<circle cx="18" cy="18" r="18" fill="#FCAA23"/>
<path fill-rule="evenodd" clip-rule="evenodd" d="M24.0873 20.2748C24.1158 19.7733 24.13 18.87 24.13 17.565C24.13 16.26 24.1158 15.3567 24.0873 14.8552C24.0303 13.6699 23.6769 12.7524 23.0273 12.1027C22.3776 11.4531 21.4601 11.0997 20.2748 11.0427C19.7733 11.0142 18.87 11 17.565 11C16.26 11 15.3567 11.0142 14.8552 11.0427C13.6699 11.0997 12.7524 11.4531 12.1027 12.1027C11.4531 12.7524 11.0997 13.6699 11.0427 14.8552C11.0142 15.3567 11 16.26 11 17.565C11 18.87 11.0142 19.7733 11.0427 20.2748C11.0997 21.4601 11.4531 22.3776 12.1027 23.0273C12.7524 23.6769 13.6699 24.0303 14.8552 24.0873C15.3567 24.1158 16.26 24.13 17.565 24.13C18.87 24.13 19.7733 24.1158 20.2748 24.0873C21.4601 24.0303 22.3776 23.6769 23.0273 23.0273C23.6769 22.3776 24.0303 21.4601 24.0873 20.2748ZM17.565 12.1796C17.5251 12.1796 17.3071 12.1782 16.9111 12.1754C16.515 12.1725 16.2144 12.1725 16.0092 12.1754C15.8041 12.1782 15.5291 12.1868 15.1843 12.201C14.8396 12.2153 14.5461 12.2438 14.3039 12.2865C14.0617 12.3292 13.8579 12.382 13.6927 12.4446C13.4077 12.5586 13.157 12.7239 12.9404 12.9404C12.7239 13.157 12.5586 13.4077 12.4446 13.6927C12.382 13.8579 12.3292 14.0617 12.2865 14.3039C12.2438 14.5461 12.2153 14.8396 12.201 15.1843C12.1868 15.5291 12.1782 15.8041 12.1754 16.0092C12.1725 16.2144 12.1725 16.515 12.1754 16.9111C12.1782 17.3071 12.1796 17.5251 12.1796 17.565C12.1796 17.6049 12.1782 17.8229 12.1754 18.2189C12.1725 18.615 12.1725 18.9156 12.1754 19.1208C12.1782 19.3259 12.1868 19.6009 12.201 19.9457C12.2153 20.2904 12.2438 20.5839 12.2865 20.8261C12.3292 21.0683 12.382 21.2721 12.4446 21.4373C12.5586 21.7223 12.7239 21.973 12.9404 22.1896C13.157 22.4061 13.4077 22.5714 13.6927 22.6854C13.8579 22.748 14.0617 22.8008 14.3039 22.8435C14.5461 22.8862 14.8396 22.9147 15.1843 22.929C15.5291 22.9432 15.8041 22.9518 16.0092 22.9546C16.2144 22.9575 16.515 22.9575 16.9111 22.9546C17.3071 22.9518 17.5251 22.9504 17.565 22.9504C17.6049 22.9504 17.8229 22.9518 18.2189 22.9546C18.615 22.9575 18.9156 22.9575 19.1208 22.9546C19.3259 22.9518 19.6009 22.9432 19.9457 22.929C20.2904 22.9147 20.5839 22.8862 20.8261 22.8435C21.0683 22.8008 21.2721 22.748 21.4373 22.6854C21.7223 22.5714 21.973 22.4061 22.1896 22.1896C22.4061 21.973 22.5714 21.7223 22.6854 21.4373C22.748 21.2721 22.8008 21.0683 22.8435 20.8261C22.8862 20.5839 22.9147 20.2904 22.929 19.9457C22.9432 19.6009 22.9518 19.3259 22.9546 19.1208C22.9575 18.9156 22.9575 18.615 22.9546 18.2189C22.9518 17.8229 22.9504 17.6049 22.9504 17.565C22.9504 17.5251 22.9518 17.3071 22.9546 16.9111C22.9575 16.515 22.9575 16.2144 22.9546 16.0092C22.9518 15.8041 22.9432 15.5291 22.929 15.1843C22.9147 14.8396 22.8862 14.5461 22.8435 14.3039C22.8008 14.0617 22.748 13.8579 22.6854 13.6927C22.5714 13.4077 22.4061 13.157 22.1896 12.9404C21.973 12.7239 21.7223 12.5586 21.4373 12.4446C21.2721 12.382 21.0683 12.3292 20.8261 12.2865C20.5839 12.2438 20.2904 12.2153 19.9457 12.201C19.6009 12.1868 19.3259 12.1782 19.1208 12.1754C18.9156 12.1725 18.615 12.1725 18.2189 12.1754C17.8229 12.1782 17.6049 12.1796 17.565 12.1796ZM21.6254 14.6159C21.7793 14.462 21.8562 14.2768 21.8562 14.0602C21.8562 13.8437 21.7793 13.6585 21.6254 13.5046C21.4715 13.3507 21.2863 13.2738 21.0698 13.2738C20.8532 13.2738 20.668 13.3507 20.5141 13.5046C20.3603 13.6585 20.2833 13.8437 20.2833 14.0602C20.2833 14.2768 20.3603 14.462 20.5141 14.6159C20.668 14.7697 20.8532 14.8467 21.0698 14.8467C21.2863 14.8467 21.4715 14.7697 21.6254 14.6159ZM20.933 17.565C20.933 18.4996 20.6053 19.2946 19.9499 19.9499C19.2946 20.6053 18.4996 20.933 17.565 20.933C16.6304 20.933 15.8354 20.6053 15.1801 19.9499C14.5247 19.2946 14.197 18.4996 14.197 17.565C14.197 16.6304 14.5247 15.8354 15.1801 15.1801C15.8354 14.5247 16.6304 14.197 17.565 14.197C18.4996 14.197 19.2946 14.5247 19.9499 15.1801C20.6053 15.8354 20.933 16.6304 20.933 17.565ZM19.7533 17.565C19.7533 16.9609 19.5396 16.4452 19.1122 16.0178C18.6848 15.5904 18.1691 15.3767 17.565 15.3767C16.9609 15.3767 16.4452 15.5904 16.0178 16.0178C15.5904 16.4452 15.3767 16.9609 15.3767 17.565C15.3767 18.1691 15.5904 18.6848 16.0178 19.1122C16.4452 19.5396 16.9609 19.7533 17.565 19.7533C18.1691 19.7533 18.6848 19.5396 19.1122 19.1122C19.5396 18.6848 19.7533 18.1691 19.7533 17.565Z" fill="white"/>
</svg>
