<svg width="36" height="36" viewBox="0 0 36 36" fill="none" xmlns="http://www.w3.org/2000/svg">
<circle cx="18" cy="18" r="18" fill="#FCAA23"/>
<path fill-rule="evenodd" clip-rule="evenodd" d="M11.4837 11.9383C18.3699 12.1855 23.8837 17.7315 24.1297 24.5843C24.1392 24.849 23.9254 25.068 23.6606 25.068H22.2519C21.999 25.068 21.7933 24.8677 21.783 24.6151C21.5532 19.0129 17.056 14.5148 11.4529 14.2851C11.2003 14.2747 11 14.069 11 13.8162V12.4074C11 12.1426 11.219 11.9288 11.4837 11.9383ZM19.9021 24.5759C19.6572 20.0449 16.028 16.4111 11.4921 16.1659C11.2244 16.1515 11 16.3666 11 16.6347V18.0435C11 18.2901 11.1902 18.497 11.4363 18.513C14.7139 18.7264 17.3411 21.3471 17.555 24.6317C17.571 24.8778 17.7779 25.068 18.0245 25.068H19.4333C19.7014 25.068 19.9165 24.8436 19.9021 24.5759ZM14.7538 23.1911C14.7538 24.2277 13.9135 25.068 12.8769 25.068C11.8403 25.068 11 24.2277 11 23.1911C11 22.1545 11.8403 21.3142 12.8769 21.3142C13.9135 21.3142 14.7538 22.1545 14.7538 23.1911Z" fill="white"/>
</svg>
