<svg width="36" height="36" viewBox="0 0 36 36" fill="none" xmlns="http://www.w3.org/2000/svg">
<circle cx="18" cy="18" r="18" fill="#FCAA23"/>
<path fill-rule="evenodd" clip-rule="evenodd" d="M20.0452 13.2642C19.1872 13.2391 18.2977 13.2266 17.3766 13.2266C15.3152 13.2266 13.5965 13.2768 12.2204 13.3772C12.2149 13.3772 12.1683 13.3814 12.0806 13.3898C11.9929 13.3982 11.9298 13.4065 11.8914 13.4149C11.8531 13.4233 11.7887 13.4358 11.6982 13.4526C11.6077 13.4693 11.5296 13.4916 11.4638 13.5195C11.398 13.5474 11.3213 13.5837 11.2336 13.6283C11.1458 13.673 11.0609 13.7274 10.9786 13.7916C10.8964 13.8557 10.8169 13.9297 10.7401 14.0134L10.625 14.1557C10.5482 14.2506 10.4605 14.4222 10.3618 14.6705C10.2632 14.9188 10.1946 15.1964 10.1562 15.5033C10.0521 16.3125 10.0027 17.1217 10.0082 17.9308V19.404C10.0137 19.6328 10.0288 19.9495 10.0535 20.3541C10.0781 20.7586 10.1124 21.1395 10.1562 21.4967C10.1946 21.8036 10.2673 22.0854 10.3742 22.3421C10.4811 22.5988 10.5606 22.762 10.6127 22.8318C10.6647 22.9015 10.7072 22.9531 10.7401 22.9866C10.8717 23.1261 11.0266 23.2405 11.2048 23.3298C11.3829 23.4191 11.5228 23.4777 11.6242 23.5056C11.7256 23.5335 11.875 23.5614 12.0724 23.5893L12.3684 23.6228L12.7714 23.6562C13.0345 23.673 13.5842 23.6939 14.4202 23.719C15.2563 23.7441 16.2418 23.7623 17.3766 23.7734C19.438 23.7734 21.1568 23.7204 22.5329 23.6144C22.5384 23.6144 22.5836 23.6102 22.6686 23.6018C22.7536 23.5935 22.8166 23.5851 22.8577 23.5767C22.8988 23.5684 22.9646 23.5558 23.0551 23.5391C23.1456 23.5223 23.2237 23.5 23.2895 23.4721C23.3553 23.4442 23.432 23.4093 23.5197 23.3675C23.6075 23.3256 23.6924 23.2726 23.7747 23.2084C23.8569 23.1443 23.9364 23.0703 24.0132 22.9866L24.1283 22.8443C24.205 22.7494 24.2928 22.5778 24.3914 22.3295C24.4901 22.0812 24.5587 21.8036 24.597 21.4967C24.7012 20.6875 24.7505 19.8783 24.7451 19.0692V17.596C24.7396 17.3672 24.7245 17.0505 24.6998 16.6459C24.6752 16.2414 24.6409 15.8605 24.597 15.5033C24.5587 15.1964 24.486 14.9146 24.3791 14.6579C24.2722 14.4012 24.1927 14.238 24.1406 14.1682C24.0885 14.0985 24.0461 14.0469 24.0132 14.0134C23.9364 13.9297 23.8569 13.8557 23.7747 13.7916C23.6924 13.7274 23.6075 13.673 23.5197 13.6283C23.432 13.5837 23.3553 13.5474 23.2895 13.5195C23.2237 13.4916 23.1456 13.4693 23.0551 13.4526C22.9646 13.4358 22.9002 13.4233 22.8618 13.4149C22.8235 13.4065 22.7604 13.3982 22.6727 13.3898C22.585 13.3814 22.5384 13.3772 22.5329 13.3772L21.9326 13.3438C21.5323 13.3158 20.9032 13.2893 20.0452 13.2642ZM19.8355 18.3493L15.8553 20.442V16.2316L19.8355 18.3493Z" fill="white"/>
</svg>
