<svg width="36" height="36" viewBox="0 0 36 36" fill="none" xmlns="http://www.w3.org/2000/svg">
<circle cx="18" cy="18" r="18" fill="#FCAA23"/>
<path d="M25 13.4473C24.5749 14.0693 24.0609 14.5994 23.4581 15.0374C23.4645 15.1262 23.4676 15.2595 23.4676 15.4373C23.4676 16.2625 23.3471 17.0861 23.106 17.9081C22.8648 18.7301 22.4984 19.5188 22.0067 20.2742C21.5149 21.0295 20.9296 21.6976 20.2506 22.2784C19.5717 22.8593 18.7532 23.3226 17.7951 23.6686C16.8369 24.0145 15.8122 24.1875 14.7208 24.1875C13.0013 24.1875 11.4277 23.7273 10 22.8069C10.2221 22.8323 10.4695 22.845 10.7424 22.845C12.1701 22.845 13.4423 22.407 14.559 21.531C13.8928 21.5183 13.2963 21.3136 12.7697 20.9169C12.243 20.5201 11.8813 20.0139 11.6846 19.3982C11.894 19.4299 12.0876 19.4458 12.2652 19.4458C12.5381 19.4458 12.8077 19.4109 13.0742 19.3411C12.3636 19.1951 11.7751 18.8412 11.3087 18.2794C10.8423 17.7177 10.6091 17.0654 10.6091 16.3228V16.2847C11.0406 16.5259 11.5038 16.656 11.9987 16.675C11.5799 16.3958 11.2468 16.0308 10.9994 15.5801C10.7519 15.1294 10.6282 14.6406 10.6282 14.1138C10.6282 13.5552 10.7678 13.0378 11.047 12.5618C11.8147 13.5076 12.749 14.2645 13.8499 14.8326C14.9508 15.4008 16.1294 15.7166 17.3858 15.78C17.335 15.5388 17.3096 15.304 17.3096 15.0754C17.3096 14.2249 17.6095 13.4996 18.2091 12.8998C18.8087 12.2999 19.5336 12 20.3839 12C21.2722 12 22.0209 12.3237 22.6301 12.9712C23.3217 12.8379 23.9721 12.5903 24.5812 12.2285C24.3464 12.9585 23.8959 13.5234 23.2297 13.9233C23.8198 13.8599 24.4099 13.7012 25 13.4473Z" fill="white"/>
</svg>
